# xmcd CD database file
#
# Track frame offsets:
#	150
#	16650
#	32100
#	48000
#	62945
#	81635
#	96695
#	110345
#	128395
#	144925
#	159930
#	176240
#	195600
#	209170
#	225325
#	243600
#	259130
#	277475
#	294055
#	313160
#
# Disc length: 4409 seconds
#
# Revision: 0
# Processed by: cddbd v1.5.2PL0 Copyright (c) Steve Scherf et al.
# Submitted via: CDex 1.70beta2
#
DISCID=26113714
DTITLE=青江三奈 - ゴールデン☆ベスト 青江三奈 
DYEAR=2009
DGENRE=Blues
TTITLE0=恍惚のブルース
TTITLE1=ブルー・ブルース
TTITLE2=眠られぬ夜のブルース
TTITLE3=あなたとわたし
TTITLE4=この恋なくしたら
TTITLE5=伊勢佐木町ブルース
TTITLE6=霧のハイウェー
TTITLE7=札幌ブルース
TTITLE8=長崎ブルース
TTITLE9=新宿サタデー・ナイト
TTITLE10=池袋の夜
TTITLE11=国際線待合室
TTITLE12=夜がわたしを誘惑するように
TTITLE13=銀座ブルー・ナイト
TTITLE14=小樽の灯
TTITLE15=大阪ブルース
TTITLE16=ベイブリッジ・ブルース
TTITLE17=本牧 HONMOKUブルース
TTITLE18=炎のように火のように
TTITLE19=恋命
EXTD=YEAR: 2009
EXTT0=
EXTT1=
EXTT2=
EXTT3=
EXTT4=
EXTT5=
EXTT6=
EXTT7=
EXTT8=
EXTT9=
EXTT10=
EXTT11=
EXTT12=
EXTT13=
EXTT14=
EXTT15=
EXTT16=
EXTT17=
EXTT18=
EXTT19=
PLAYORDER=
